<svg xmlns="http://www.w3.org/2000/svg" width="150" height="150" viewBox="0 0 230 230">
    <g fill="#010020" fill-rule="evenodd">
        <path d="M150.941 114.6c5.494 1.47 8.755 7.11 7.285 12.59-1.472 5.482-7.123 8.736-12.616 7.27-5.503-1.473-8.755-7.11-7.285-12.59 1.472-5.482 7.115-8.74 12.616-7.27m18.743-2.405c-6.825-11.804-21.943-15.847-33.777-9.03a24.67 24.67 0 0 1-18.757 2.467 4.12 4.12 0 0 1-2.607-5.84l7.534-18.443 9.359-22.931 7.555-18.498-.007-.002a4.11 4.11 0 0 0-2.637-5.779 4.154 4.154 0 0 0-3.127.409c-.173.1-.343.215-.489.336l-27.442 21.29-39.823 30.885c-9.545 7.45-12.385 20.968-6.15 31.742 6.832 11.801 21.952 15.843 33.775 9.031a24.667 24.667 0 0 1 18.76-2.464 4.112 4.112 0 0 1 2.604 5.839l-7.53 18.436-9.36 22.936-7.556 18.5.007.002a4.12 4.12 0 0 0 .133 3.864 4.155 4.155 0 0 0 2.504 1.915 4.136 4.136 0 0 0 3.127-.41c.18-.104.34-.216.489-.342l.005.009 27.435-21.285 39.824-30.893c9.546-7.45 12.386-20.967 6.151-31.744"/>
        <path d="M114.7 213.509c-54.24 0-98.21-43.97-98.21-98.208 0-54.241 43.97-98.21 98.21-98.21 54.24 0 98.21 43.969 98.21 98.21 0 54.239-43.97 98.208-98.21 98.208M114.7.6C51.354.6 0 51.953 0 115.3S51.353 230 114.7 230c63.346 0 114.7-51.353 114.7-114.7S178.046.6 114.7.6"/>
    </g>
</svg>
